<?xml version="1.0" encoding="UTF-8" standalone="no"?>
<!DOCTYPE svg PUBLIC "-//W3C//DTD SVG 1.1//EN"
 "http://www.w3.org/Graphics/SVG/1.1/DTD/svg11.dtd">
<!-- Generated by graphviz version 2.43.0 (0)
 -->
<!-- Title: rfc017 Pages: 1 -->
<svg width="1173pt" height="260pt"
 viewBox="0.00 0.00 1173.36 260.00" xmlns="http://www.w3.org/2000/svg" xmlns:xlink="http://www.w3.org/1999/xlink">
<g id="graph0" class="graph" transform="scale(1 1) rotate(0) translate(4 256)">
<title>rfc017</title>
<!-- A -->
<g id="node1" class="node">
<title>A</title>
<ellipse fill="white" stroke="black" cx="172.88" cy="-18" rx="172.77" ry="18"/>
<text text-anchor="middle" x="172.88" y="-14.3" font-family="Times,serif" font-size="14.00">HandlerMemory Serialization/Deserialization</text>
</g>
<!-- B -->
<g id="node2" class="node">
<title>B</title>
<ellipse fill="white" stroke="black" cx="527.88" cy="-18" rx="164.37" ry="18"/>
<text text-anchor="middle" x="527.88" y="-14.3" font-family="Times,serif" font-size="14.00">LogRendezvousHash Health/Routing Table</text>
</g>
<!-- C -->
<g id="node3" class="node">
<title>C</title>
<ellipse fill="white" stroke="black" cx="937.88" cy="-18" rx="227.46" ry="18"/>
<text text-anchor="middle" x="937.88" y="-14.3" font-family="Times,serif" font-size="14.00">Datastore LogRendezvousHash Primary+Copies Assignment</text>
</g>
<!-- D -->
<g id="node4" class="node">
<title>D</title>
<ellipse fill="white" stroke="black" cx="246.88" cy="-90" rx="118.08" ry="18"/>
<text text-anchor="middle" x="246.88" y="-86.3" font-family="Times,serif" font-size="14.00">Anycloud Control Port Access</text>
</g>
<!-- E -->
<g id="node5" class="node">
<title>E</title>
<ellipse fill="white" stroke="black" cx="527.88" cy="-90" rx="144.07" ry="18"/>
<text text-anchor="middle" x="527.88" y="-86.3" font-family="Times,serif" font-size="14.00">Basic Datastore distributed get/set/etc</text>
</g>
<!-- E&#45;&gt;A -->
<g id="edge1" class="edge">
<title>E&#45;&gt;A</title>
<path fill="none" stroke="black" d="M454.33,-74.5C397.79,-63.35 319.53,-47.92 259.88,-36.15"/>
<polygon fill="black" stroke="black" points="260.21,-32.65 249.72,-34.15 258.86,-39.52 260.21,-32.65"/>
</g>
<!-- E&#45;&gt;B -->
<g id="edge2" class="edge">
<title>E&#45;&gt;B</title>
<path fill="none" stroke="black" d="M527.88,-71.7C527.88,-63.98 527.88,-54.71 527.88,-46.11"/>
<polygon fill="black" stroke="black" points="531.38,-46.1 527.88,-36.1 524.38,-46.1 531.38,-46.1"/>
</g>
<!-- E&#45;&gt;C -->
<g id="edge3" class="edge">
<title>E&#45;&gt;C</title>
<path fill="none" stroke="black" d="M609.38,-75.09C674.71,-63.93 766.71,-48.22 836.75,-36.27"/>
<polygon fill="black" stroke="black" points="837.64,-39.66 846.91,-34.53 836.47,-32.76 837.64,-39.66"/>
</g>
<!-- F -->
<g id="node6" class="node">
<title>F</title>
<ellipse fill="white" stroke="black" cx="322.88" cy="-162" rx="76.89" ry="18"/>
<text text-anchor="middle" x="322.88" y="-158.3" font-family="Times,serif" font-size="14.00">Anycloud libraries</text>
</g>
<!-- F&#45;&gt;D -->
<g id="edge4" class="edge">
<title>F&#45;&gt;D</title>
<path fill="none" stroke="black" d="M304.87,-144.41C295.27,-135.56 283.28,-124.52 272.7,-114.77"/>
<polygon fill="black" stroke="black" points="275.02,-112.16 265.29,-107.96 270.28,-117.31 275.02,-112.16"/>
</g>
<!-- F&#45;&gt;E -->
<g id="edge5" class="edge">
<title>F&#45;&gt;E</title>
<path fill="none" stroke="black" d="M364.37,-146.83C395.04,-136.36 437.16,-121.98 470.97,-110.43"/>
<polygon fill="black" stroke="black" points="472.39,-113.65 480.72,-107.1 470.13,-107.02 472.39,-113.65"/>
</g>
<!-- G -->
<g id="node7" class="node">
<title>G</title>
<ellipse fill="white" stroke="black" cx="527.88" cy="-162" rx="110.48" ry="18"/>
<text text-anchor="middle" x="527.88" y="-158.3" font-family="Times,serif" font-size="14.00">Datastore Atomic mutations</text>
</g>
<!-- G&#45;&gt;E -->
<g id="edge6" class="edge">
<title>G&#45;&gt;E</title>
<path fill="none" stroke="black" d="M527.88,-143.7C527.88,-135.98 527.88,-126.71 527.88,-118.11"/>
<polygon fill="black" stroke="black" points="531.38,-118.1 527.88,-108.1 524.38,-118.1 531.38,-118.1"/>
</g>
<!-- H -->
<g id="node8" class="node">
<title>H</title>
<ellipse fill="white" stroke="black" cx="424.88" cy="-234" rx="102.88" ry="18"/>
<text text-anchor="middle" x="424.88" y="-230.3" font-family="Times,serif" font-size="14.00">Anycloud Atomic support</text>
</g>
<!-- H&#45;&gt;F -->
<g id="edge7" class="edge">
<title>H&#45;&gt;F</title>
<path fill="none" stroke="black" d="M400.71,-216.41C387.02,-207.02 369.73,-195.15 354.92,-184.98"/>
<polygon fill="black" stroke="black" points="356.76,-182 346.53,-179.23 352.8,-187.77 356.76,-182"/>
</g>
<!-- H&#45;&gt;G -->
<g id="edge8" class="edge">
<title>H&#45;&gt;G</title>
<path fill="none" stroke="black" d="M449.29,-216.41C462.92,-207.15 480.08,-195.49 494.89,-185.42"/>
<polygon fill="black" stroke="black" points="496.99,-188.23 503.29,-179.71 493.06,-182.44 496.99,-188.23"/>
</g>
</g>
</svg>
